<svg width="32" height="32" viewBox="0 0 32 32" fill="none" xmlns="http://www.w3.org/2000/svg">
<path d="M26.9541 6.20967L22.3305 9.81232C21.7663 8.96933 20.915 8.4025 19.9637 8.2364C19.0124 8.07029 18.0388 8.31851 17.257 8.92649C17.0573 9.08139 16.873 9.25823 16.7071 9.45417L15.2733 8.6743C15.2733 8.6743 21.4093 2.78079 26.9541 6.20967Z" fill="url(#paint0_linear_5684_68653)"/>
<path d="M16.7621 22.8098L12.5431 25.9018L15.6838 22.723L14.2578 16.0962L8.87798 12.5486L5.09109 14.7632L9.14118 11.417L15.2085 15.3566L16.7621 22.8098Z" fill="#AFB3F2"/>
<path d="M13.5644 21.129L1.74612 25.84L9.61256 15.2207L12.7906 17.2382L13.5644 21.129Z" fill="url(#paint1_linear_5684_68653)"/>
<path d="M20.4272 22.9454L19.3116 14.3986L19.2487 13.9027C19.0081 13.8813 18.7746 13.8039 18.5643 13.6758C18.354 13.5477 18.172 13.372 18.0307 13.1607C17.8894 12.9495 17.7922 12.7077 17.7458 12.452C17.6994 12.1963 17.7049 11.9329 17.7619 11.6797L17.3474 11.4678L10.1743 7.62988L5.09109 14.7631L9.14118 11.4169L15.2085 15.3565L16.7621 22.8097L12.5431 25.9017L20.4272 22.9454Z" fill="#0B1233"/>
<path d="M26.9541 6.20996L22.3305 9.81261C21.7663 8.96962 20.9151 8.40279 19.9637 8.23669C19.0124 8.07059 18.0389 8.3188 17.2571 8.92678C17.0573 9.08169 16.873 9.25853 16.7071 9.45446L18.1488 10.2365L18.63 10.4971C18.9851 10.3046 19.3922 10.2549 19.7781 10.3568C20.1641 10.4588 20.5038 10.7058 20.7363 11.0536C20.9687 11.4014 21.0787 11.8271 21.0466 12.2545C21.0144 12.6818 20.8422 13.0828 20.5608 13.3856L20.6394 13.9599L21.1088 17.3972C21.1088 17.3972 28.223 12.9702 26.9541 6.20996Z" fill="#0B1233"/>
<defs>
<linearGradient id="paint0_linear_5684_68653" x1="18.3795" y1="9.51867" x2="25.1447" y2="5.15785" gradientUnits="userSpaceOnUse">
<stop stop-color="#4B4EC6"/>
<stop offset="0.35" stop-color="#5A8BCE"/>
<stop offset="0.79" stop-color="#6BD1D7"/>
<stop offset="1" stop-color="#72EDDB"/>
</linearGradient>
<linearGradient id="paint1_linear_5684_68653" x1="2.49676" y1="25.405" x2="13.6413" y2="17.794" gradientUnits="userSpaceOnUse">
<stop stop-color="#72EDDB"/>
<stop offset="0.21" stop-color="#6BD1D7"/>
<stop offset="0.65" stop-color="#5A8BCE"/>
<stop offset="1" stop-color="#4B4EC6"/>
</linearGradient>
</defs>
</svg>
