<svg width="286" height="53" viewBox="0 0 286 53" fill="none" xmlns="http://www.w3.org/2000/svg">
<path d="M244.446 24.3351V51.3709C244.447 51.453 244.432 51.5345 244.401 51.6106C244.37 51.6867 244.324 51.756 244.267 51.8143C244.209 51.8727 244.14 51.919 244.065 51.9506C243.989 51.9822 243.908 51.9985 243.826 51.9985H235.383C235.217 51.9985 235.058 51.9323 234.94 51.8146C234.823 51.6969 234.757 51.5373 234.757 51.3709V24.2975C234.757 24.1942 234.783 24.0925 234.831 24.0014C234.88 23.9103 234.95 23.8326 235.036 23.7753C235.121 23.718 235.22 23.6828 235.322 23.6728C235.425 23.6629 235.528 23.6785 235.623 23.7182C236.916 24.2463 238.3 24.5124 239.695 24.5014C241.035 24.5085 242.363 24.2553 243.607 23.7557C243.701 23.7215 243.801 23.7103 243.9 23.7229C243.999 23.7356 244.093 23.7717 244.176 23.8284C244.258 23.8851 244.325 23.9607 244.372 24.0488C244.419 24.1369 244.445 24.2351 244.446 24.3351Z" fill="#2c4cc9"/>
<path d="M239.605 20.6986C242.972 20.6986 245.702 18.0328 245.702 14.7443C245.702 11.4559 242.972 8.79004 239.605 8.79004C236.237 8.79004 233.507 11.4559 233.507 14.7443C233.507 18.0328 236.237 20.6986 239.605 20.6986Z" fill="#AFB3F2"/>
<path d="M176.239 52.6856C164.262 52.6856 155.562 44.3228 155.562 31.3306C155.562 18.3384 164.043 9.97559 176.239 9.97559C188.14 9.97559 196.547 18.1131 196.547 30.4348C196.554 31.5284 196.491 32.6213 196.36 33.707C196.336 33.9151 196.237 34.1073 196.081 34.2468C195.925 34.3863 195.724 34.4634 195.515 34.4633H167.084C166.962 34.4636 166.841 34.4903 166.729 34.5416C166.618 34.5929 166.519 34.6676 166.439 34.7607C166.359 34.8538 166.299 34.9631 166.265 35.0811C166.231 35.1992 166.222 35.3233 166.24 35.445C167.105 40.9541 171.098 44.0278 176.02 44.0278C180.247 44.0278 182.668 42.0162 184.036 39.4574C184.109 39.3253 184.216 39.2152 184.345 39.1388C184.475 39.0623 184.623 39.0223 184.773 39.0229H194.313C194.449 39.0225 194.584 39.0552 194.705 39.1182C194.827 39.1812 194.931 39.2726 195.01 39.3847C195.089 39.4969 195.139 39.6264 195.157 39.7623C195.176 39.8982 195.161 40.0365 195.114 40.1655C192.576 47.2302 185.917 52.6856 176.239 52.6856ZM167.223 27.4737H184.859C184.982 27.4764 185.103 27.4523 185.216 27.4033C185.328 27.3542 185.429 27.2814 185.51 27.1896C185.592 27.0979 185.653 26.9895 185.689 26.8719C185.725 26.7542 185.736 26.6302 185.719 26.5082C185.126 21.6053 181.011 18.5637 175.972 18.5637C171.295 18.5637 167.538 21.3853 166.416 26.4116C166.39 26.5342 166.391 26.6609 166.42 26.783C166.448 26.905 166.502 27.0193 166.579 27.118C166.656 27.2167 166.754 27.2972 166.865 27.3541C166.976 27.4109 167.098 27.4426 167.223 27.4469V27.4737Z" fill="#2c4cc9"/>
<path d="M217.111 19.2343H224.631C224.856 19.2343 225.072 19.1444 225.232 18.9844C225.391 18.8245 225.481 18.6075 225.481 18.3813V11.5044C225.481 11.3924 225.459 11.2815 225.416 11.178C225.373 11.0745 225.311 10.9805 225.232 10.9013C225.153 10.8221 225.059 10.7593 224.956 10.7164C224.853 10.6735 224.742 10.6515 224.631 10.6515H217.111C216.885 10.6515 216.667 10.561 216.507 10.4001C216.347 10.2391 216.256 10.0208 216.256 9.79319V1.27478C216.258 1.16187 216.237 1.04981 216.195 0.945084C216.153 0.840362 216.09 0.745067 216.011 0.664727C215.932 0.584387 215.838 0.5206 215.734 0.477068C215.631 0.433535 215.519 0.411124 215.407 0.411133H206.621C206.395 0.411133 206.179 0.500993 206.02 0.660946C205.861 0.820898 205.771 1.03784 205.771 1.26405V9.79319C205.771 10.0208 205.681 10.2391 205.521 10.4001C205.36 10.561 205.143 10.6515 204.916 10.6515H200.149C200.005 10.6502 199.863 10.6861 199.736 10.7556C199.61 10.8251 199.503 10.926 199.426 11.0487C199.35 11.1713 199.306 11.3116 199.298 11.4561C199.291 11.6007 199.321 11.7447 199.385 11.8745C200.432 14.0292 201.269 16.28 201.886 18.5959C201.932 18.7784 202.038 18.9401 202.186 19.0557C202.334 19.1713 202.516 19.2341 202.704 19.2343H204.9C205.127 19.2343 205.344 19.3247 205.505 19.4856C205.665 19.6466 205.755 19.8649 205.755 20.0925V39.1678C205.755 48.6517 211.035 52.0098 218.918 52.0098H224.615C224.84 52.0098 225.056 51.9199 225.216 51.7599C225.375 51.6 225.464 51.383 225.464 51.1568V44.0546C225.464 43.8284 225.375 43.6114 225.216 43.4515C225.056 43.2915 224.84 43.2017 224.615 43.2017H220.628C217.357 43.2017 216.24 42.0054 216.24 39.2429V20.0925C216.24 19.9785 216.263 19.8655 216.307 19.7603C216.351 19.6551 216.415 19.5598 216.496 19.4799C216.578 19.4 216.674 19.3371 216.779 19.2949C216.885 19.2527 216.998 19.2321 217.111 19.2343Z" fill="#2c4cc9"/>
<path d="M269.442 52.6851C259.539 52.6851 252.501 47.1385 251.533 39.9129C251.517 39.792 251.527 39.6691 251.562 39.5523C251.597 39.4356 251.657 39.3277 251.737 39.2358C251.817 39.1439 251.915 39.0702 252.026 39.0195C252.136 38.9689 252.256 38.9424 252.378 38.9419H261.217C261.41 38.9423 261.598 39.009 261.749 39.1309C261.899 39.2529 262.004 39.4227 262.045 39.6125C262.724 42.4126 265.503 44.4403 269.367 44.4403C273.455 44.4403 275.689 42.5735 275.689 40.1865C275.689 32.7945 252.404 37.5043 252.404 22.345C252.404 15.4734 258.507 9.94824 268.694 9.94824C278.265 9.94824 284.192 14.9745 285.186 22.6454C285.202 22.766 285.192 22.8887 285.157 23.0052C285.122 23.1217 285.062 23.2292 284.982 23.3207C284.902 23.4122 284.804 23.4854 284.693 23.5354C284.582 23.5855 284.463 23.6113 284.341 23.611H276.036C275.839 23.6095 275.647 23.5392 275.495 23.412C275.343 23.2849 275.24 23.1087 275.203 22.9136C274.626 20.092 272.173 18.236 268.389 18.236C264.52 18.236 262.51 19.8023 262.51 22.1948C262.51 29.7047 285.346 25.0325 285.645 40.1865C285.656 47.3048 279.483 52.6851 269.442 52.6851Z" fill="#2c4cc9"/>
<path d="M131.459 10.0663C128.845 10.0484 126.264 10.6554 123.929 11.8373C121.595 13.0191 119.574 14.7418 118.035 16.8628C117.959 16.9767 117.856 17.0701 117.735 17.1347C117.614 17.1993 117.479 17.233 117.343 17.233C117.206 17.233 117.071 17.1993 116.951 17.1347C116.83 17.0701 116.727 16.9767 116.651 16.8628C113.695 12.4105 108.763 10.0663 102.825 10.0663C100.022 10.0372 97.2599 10.7396 94.8089 12.1047C93.8439 12.6465 92.9469 13.302 92.1368 14.0573C92.0352 14.1522 91.9126 14.2214 91.7791 14.2591C91.6456 14.2968 91.505 14.302 91.3691 14.2742C91.2332 14.2464 91.1058 14.1864 90.9977 14.0992C90.8895 14.012 90.8037 13.9002 90.7473 13.773C90.4533 12.9791 90.1434 12.1637 89.8013 11.4181C89.6983 11.1952 89.5338 11.0065 89.3274 10.8743C89.1209 10.7422 88.8811 10.6722 88.6363 10.6725H81.1544C81.0428 10.6725 80.9323 10.6945 80.8292 10.7374C80.7261 10.7802 80.6325 10.8431 80.5536 10.9223C80.4747 11.0015 80.4121 11.0955 80.3694 11.199C80.3267 11.3025 80.3047 11.4134 80.3047 11.5254V51.1564C80.3047 51.3826 80.3942 51.5995 80.5536 51.7595C80.7129 51.9194 80.9291 52.0093 81.1544 52.0093H89.8655C90.0908 52.0093 90.307 51.9194 90.4663 51.7595C90.6257 51.5995 90.7152 51.3826 90.7152 51.1564V29.163C90.6992 22.5918 94.3332 19.1855 99.9981 19.1855C105.503 19.1855 109.153 22.6186 109.153 29.1898V51.1832C109.153 51.4094 109.242 51.6263 109.402 51.7863C109.561 51.9462 109.777 52.0361 110.002 52.0361H118.713C118.939 52.0361 119.155 51.9462 119.314 51.7863C119.474 51.6263 119.563 51.4094 119.563 51.1832V29.1898C119.563 22.5918 123.192 19.1855 128.787 19.1855C134.383 19.1855 137.937 22.6186 137.937 29.1898V51.1832C137.937 51.4094 138.026 51.6263 138.185 51.7863C138.345 51.9462 138.561 52.0361 138.786 52.0361H147.497C147.723 52.0361 147.939 51.9462 148.098 51.7863C148.258 51.6263 148.347 51.4094 148.347 51.1832V27.7683C148.347 16.321 141.362 10.0663 131.459 10.0663Z" fill="#2c4cc9"/>
<path d="M69.3386 2.71734L56.7584 11.8365C55.2234 9.70273 52.9071 8.26795 50.3187 7.8475C47.7303 7.42705 45.0814 8.05534 42.9543 9.59429C42.4108 9.98639 41.9093 10.434 41.4579 10.93L37.5566 8.95595C37.5566 8.95595 54.2519 -5.962 69.3386 2.71734Z" fill="url(#paint0_linear_1046_24883)"/>
<path d="M41.6073 44.7356L30.128 52.562L38.6733 44.5157L34.7934 27.7417L20.1557 18.762L9.85205 24.3676L20.8718 15.8975L37.38 25.8696L41.6073 44.7356Z" fill="#AFB3F2"/>
<path d="M32.907 40.482L0.750977 52.4067L22.1545 25.5265L30.8014 30.6332L32.907 40.482Z" fill="url(#paint1_linear_1046_24883)"/>
<path d="M51.5796 45.0789L48.5441 23.4449L48.3731 22.1897C47.7183 22.1355 47.083 21.9395 46.5109 21.6153C45.9388 21.291 45.4434 20.8462 45.059 20.3115C44.6745 19.7767 44.41 19.1647 44.2838 18.5175C44.1575 17.8704 44.1724 17.2034 44.3275 16.5626L43.1999 16.0262L23.6828 6.31152L9.85205 24.3675L20.8718 15.8974L37.38 25.8695L41.6073 44.7356L30.128 52.562L51.5796 45.0789Z" fill="#2c4cc9"/>
<path d="M69.3382 2.71777L56.758 11.837C55.223 9.70317 52.9067 8.26838 50.3183 7.84793C47.7299 7.42748 45.081 8.05577 42.9539 9.59473C42.4104 9.98683 41.909 10.4345 41.4575 10.9304L45.3802 12.9098L46.6895 13.5696C47.6556 13.0823 48.7631 12.9564 49.8134 13.2146C50.8636 13.4727 51.7878 14.098 52.4203 14.9782C53.0528 15.8585 53.3521 16.9362 53.2646 18.0179C53.1771 19.0997 52.7085 20.1148 51.9428 20.8811L52.1566 22.3348L53.4339 31.0356C53.4339 31.0356 72.7906 19.8297 69.3382 2.71777Z" fill="#2c4cc9"/>
<defs>
<linearGradient id="paint0_linear_1046_24883" x1="46.0077" y1="11.0912" x2="63.6116" y2="-1.10637" gradientUnits="userSpaceOnUse">
<stop stop-color="#4B4EC6"/>
<stop offset="0.35" stop-color="#5A8BCE"/>
<stop offset="0.79" stop-color="#6BD1D7"/>
<stop offset="1" stop-color="#72EDDB"/>
</linearGradient>
<linearGradient id="paint1_linear_1046_24883" x1="2.79574" y1="51.3078" x2="31.6915" y2="30.089" gradientUnits="userSpaceOnUse">
<stop stop-color="#72EDDB"/>
<stop offset="0.21" stop-color="#6BD1D7"/>
<stop offset="0.65" stop-color="#5A8BCE"/>
<stop offset="1" stop-color="#4B4EC6"/>
</linearGradient>
</defs>
</svg>
